<svg xmlns="http://www.w3.org/2000/svg" viewBox="0 0 1200 800" role="img" aria-label="Abstract blue tech background">
  <defs>
    <linearGradient id="grad1" x1="0" y1="0" x2="1" y2="1">
      <stop offset="0%" stop-color="#0b2240" />
      <stop offset="50%" stop-color="#102f5a" />
      <stop offset="100%" stop-color="#0f2c58" />
    </linearGradient>
    <radialGradient id="glow1" cx="30%" cy="20%" r="40%">
      <stop offset="0%" stop-color="#26d9f5" stop-opacity="0.35" />
      <stop offset="100%" stop-color="#26d9f5" stop-opacity="0" />
    </radialGradient>
    <radialGradient id="glow2" cx="80%" cy="80%" r="35%">
      <stop offset="0%" stop-color="#6f6fe8" stop-opacity="0.28" />
      <stop offset="100%" stop-color="#6f6fe8" stop-opacity="0" />
    </radialGradient>
  </defs>
  <rect width="1200" height="800" fill="url(#grad1)" />
  <circle cx="240" cy="160" r="180" fill="url(#glow1)" />
  <circle cx="900" cy="680" r="220" fill="url(#glow2)" />
  <g opacity="0.2" fill="none" stroke="#ffffff" stroke-width="2">
    <circle cx="310" cy="250" r="96" />
    <circle cx="780" cy="360" r="70" />
    <circle cx="520" cy="520" r="120" />
    <path d="M200 720C280 660 360 640 440 690" />
    <path d="M780 140C820 220 900 240 980 180" />
  </g>
  <g fill="#ffffff" opacity="0.12">
    <rect x="80" y="600" width="120" height="8" rx="4" />
    <rect x="120" y="640" width="180" height="8" rx="4" />
    <rect x="210" y="680" width="100" height="8" rx="4" />
    <rect x="760" y="120" width="110" height="6" rx="3" />
    <rect x="840" y="148" width="62" height="6" rx="3" />
    <rect x="920" y="178" width="40" height="6" rx="3" />
  </g>
</svg>
