<svg xmlns="http://www.w3.org/2000/svg" viewBox="0 0 640 480" role="img" aria-label="Laptop showing SMO dashboard on a desk">
  <defs>
    <linearGradient id="screenGradient" x1="0" y1="0" x2="1" y2="1">
      <stop offset="0%" stop-color="#1fc7d4" />
      <stop offset="100%" stop-color="#6f6fe8" />
    </linearGradient>
    <linearGradient id="keyboardGradient" x1="0" y1="0" x2="1" y2="1">
      <stop offset="0%" stop-color="#0c1e38" />
      <stop offset="100%" stop-color="#122a4a" />
    </linearGradient>
  </defs>
  <rect x="68" y="104" width="504" height="292" rx="28" fill="#0c1e38" />
  <rect x="92" y="128" width="456" height="232" rx="22" fill="url(#screenGradient)" />
  <rect x="124" y="174" width="392" height="144" rx="16" fill="#071427" />
  <path d="M124 206h392v64H124z" fill="#122a4a" opacity="0.8" />
  <circle cx="176" cy="242" r="10" fill="#1fc7d4" />
  <rect x="208" y="232" width="54" height="12" rx="6" fill="#eaf1f8" opacity="0.7" />
  <rect x="280" y="232" width="118" height="16" rx="8" fill="#eaf1f8" opacity="0.7" />
  <rect x="412" y="232" width="60" height="16" rx="8" fill="#eaf1f8" opacity="0.7" />
  <rect x="152" y="276" width="336" height="6" rx="3" fill="#9fb3c8" opacity="0.6" />
  <rect x="124" y="330" width="392" height="16" rx="8" fill="url(#keyboardGradient)" />
  <rect x="124" y="356" width="392" height="40" rx="20" fill="#071427" />
  <path d="M152 368h52" stroke="#1fc7d4" stroke-width="6" stroke-linecap="round" />
  <path d="M226 368h32" stroke="#1fc7d4" stroke-width="6" stroke-linecap="round" />
  <path d="M282 368h82" stroke="#1fc7d4" stroke-width="6" stroke-linecap="round" />
  <path d="M392 368h74" stroke="#1fc7d4" stroke-width="6" stroke-linecap="round" />
  <path d="M476 368h28" stroke="#1fc7d4" stroke-width="6" stroke-linecap="round" />
  <path d="M114" d="M124 402h392" stroke="#071427" stroke-width="16" stroke-linecap="round" />
  <path d="M114" d="M124 402h392" stroke="#0c1e38" stroke-width="8" stroke-linecap="round" opacity="0.8" />
  <text x="320" y="82" text-anchor="middle" fill="#ffffff" font-family="Inter, sans-serif" font-size="28" font-weight="700">SMO Dashboard</text>
</svg>
